{"title":"Faster 2010 DVDrip English Klam","uid":6513305,"size":1577790415,"categoryP":"video","categoryS":"movies","magnet":"?xt=urn:btih:f66a5d63139ac13ce5a74a16b70c2b84a092ac39&amp;dn=Faster+2010+DVDrip+English+Klam&amp;tr=udp%3A%2F%2Ftracker.openbittorrent.com%3A80&amp;tr=udp%3A%2F%2Fopen.demonii.com%3A1337&amp;tr=udp%3A%2F%2Ftracker.coppersurfer.tk%3A6969&amp;tr=udp%3A%2F%2Fexodus.desync.com%3A6969","seeders":3,"leechers":0,"uploader":"Klambake","files":-1,"time":1309720720,"description":"With: Dwayne Johnson, Carla Gugino and Billy Bob Thornton\n\n'Faster' vertelt het verhaal van Driver (Dwayne Johnson), een man die net vrijkomt na een jarenlange gevangenisstraf. Hij zat vast omdat hij er tijdens een bankoverval in is geluisd. Daarnaast is zijn broer toen vermoord. Nu wil Driver maar ÃƒÂ©ÃƒÂ©n ding; zijn broer wreken.\n\nAn ex-con sets out to avenge his brother's death after they were double-crossed during a heist years ago. During his campaign, however, he's tracked by a veteran cop and an egocentric hit man. \n\n------------------ Dutch Friends ------------------\nYou can find my Friends at: http://www.Film-Test.nl \n------ They got my dutchs subs ---- and more ------\n\nGeneral:\n\nComplete name                    : Faster\\Faster.avi\nFormat                           : AVI\nFormat/Info                      : Audio Video Interleave\nFile size                        : 1.47 GiB\nDuration                         : 1h 33mn\nOverall bit rate                 : 2 237 Kbps\n\nVideo:\n\nFormat                           : MPEG-4 Visual\nFormat profile                   : Simple@L3\nFormat settings, BVOP            : No\nFormat settings, QPel            : No\nFormat settings, GMC             : No warppoints\nFormat settings, Matrix          : Default (H.263)\nCodec ID                         : XVID\nCodec ID/Hint                    : XviD\nDuration                         : 1h 33mn\nBit rate                         : 1 778 Kbps\nWidth                            : 720 pixels\nHeight                           : 304 pixels\nDisplay aspect ratio             : 2.35:1\nFrame rate                       : 25.000 fps\nColor space                      : YUV\nChroma subsampling               : 4:2:0\nBit depth                        : 8 bits\nScan type                        : Progressive\nBits/(Pixel*Frame)               : 0.325\nStream size                      : 1.17 GiB (79%)\nWriting library                  : XviD 1.1.2 (UTC 2006-11-01)\n\nAudio:\n\nFormat                           : AC-3\nFormat/Info                      : Audio Coding 3\nMode extension                   : CM (complete main)\nCodec ID                         : 2000\nDuration                         : 1h 33mn\nBit rate mode                    : Constant\nBit rate                         : 448 Kbps\nChannel(s)                       : 6 channels\nChannel positions                : Front: L C R, Side: L R, LFE\nSampling rate                    : 48.0 KHz\nBit depth                        : 16 bits\nStream size                      : 301 MiB (20%)\nAlignment                        : Aligned on interleaves\nInterleave, duration             : 32 ms (0.80 video frame)\nInterleave, preload duration     : 256 ms\n\n","torrent":{"xt":"urn:btih:f66a5d63139ac13ce5a74a16b70c2b84a092ac39","amp;dn":"Faster+2010+DVDrip+English+Klam","amp;tr":["udp%3A%2F%2Ftracker.openbittorrent.com%3A80","udp%3A%2F%2Fopen.demonii.com%3A1337","udp%3A%2F%2Ftracker.coppersurfer.tk%3A6969","udp%3A%2F%2Fexodus.desync.com%3A6969"],"infoHash":"f66a5d63139ac13ce5a74a16b70c2b84a092ac39","infoHashBuffer":{"type":"Buffer","data":[246,106,93,99,19,154,193,60,229,167,74,22,183,12,43,132,160,146,172,57]},"announce":[],"urlList":[]}}